<svg width="50" height="43" viewBox="0 0 50 43" fill="none" xmlns="http://www.w3.org/2000/svg">
<path d="M27.2739 0V2.26316H43.1829V6.78947H27.2739V38.4737H36.3648V43H13.6375V38.4737H22.7284V6.78947H6.81932V2.26316H22.7284V0H27.2739ZM9.09205 9.82889L15.5193 16.2314C16.7907 17.4974 17.6564 19.1104 18.0072 20.8665C18.3579 22.6225 18.1779 24.4427 17.4898 26.0968C16.8017 27.7509 15.6365 29.1647 14.1415 30.1594C12.6465 31.1541 10.8889 31.685 9.09091 31.685C7.29292 31.685 5.5353 31.1541 4.04032 30.1594C2.54534 29.1647 1.38014 27.7509 0.692053 26.0968C0.00397001 24.4427 -0.176088 22.6225 0.174649 20.8665C0.525386 19.1104 1.39116 17.4974 2.6625 16.2314L9.09205 9.82889ZM40.9102 9.82889L47.3375 16.2314C48.6088 17.4974 49.4746 19.1104 49.8253 20.8665C50.1761 22.6225 49.996 24.4427 49.3079 26.0968C48.6199 27.7509 47.4547 29.1647 45.9597 30.1594C44.4647 31.1541 42.7071 31.685 40.9091 31.685C39.1111 31.685 37.3535 31.1541 35.8585 30.1594C34.3635 29.1647 33.1983 27.7509 32.5102 26.0968C31.8221 24.4427 31.6421 22.6225 31.9928 20.8665C32.3436 19.1104 33.2093 17.4974 34.4807 16.2314L40.9102 9.82889ZM40.9102 16.2314L37.6966 19.4315C36.8441 20.2801 36.365 21.4312 36.3648 22.6316L45.4557 22.6338C45.4557 21.4117 44.9739 20.2779 44.1239 19.4315L40.9102 16.2314ZM9.09205 16.2314L5.87841 19.4315C5.02592 20.2801 4.54685 21.4312 4.54659 22.6316L13.6375 22.6338C13.6375 21.4117 13.1557 20.2779 12.3057 19.4315L9.09205 16.2314Z" fill="url(#paint0_linear_177_77)"/>
<defs>
<linearGradient id="paint0_linear_177_77" x1="9.67604e-08" y1="39.3426" x2="53.4515" y2="33.0702" gradientUnits="userSpaceOnUse">
<stop stop-color="#F9E33B"/>
<stop offset="0.858244" stop-color="#E63F61"/>
</linearGradient>
</defs>
</svg>
