<svg width="29" height="24" viewBox="0 0 29 24" fill="none" xmlns="http://www.w3.org/2000/svg">
<path d="M25.0096 0H3.5728C2.62555 0.00103888 1.71738 0.387297 1.04757 1.07402C0.377758 1.76075 0.00101329 2.69185 0 3.66302V19.3617C0.00101329 20.3329 0.377758 21.264 1.04757 21.9507C1.71738 22.6374 2.62555 23.0237 3.5728 23.0247H25.0096C25.9569 23.0237 26.865 22.6374 27.5349 21.9507C28.2047 21.264 28.5814 20.3329 28.5824 19.3617V3.66302C28.5814 2.69185 28.2047 1.76075 27.5349 1.07402C26.865 0.387297 25.9569 0.00103888 25.0096 0ZM24.1049 6.05904L14.9177 13.3851C14.7386 13.5279 14.5181 13.6054 14.2912 13.6054C14.0643 13.6054 13.8438 13.5279 13.6647 13.3851L4.47749 6.05904C4.36955 5.97546 4.27888 5.87073 4.21076 5.75092C4.14264 5.63111 4.09843 5.49862 4.08068 5.36114C4.06294 5.22366 4.07202 5.08393 4.1074 4.95008C4.14279 4.81624 4.20376 4.69093 4.28679 4.58145C4.36981 4.47197 4.47323 4.3805 4.59104 4.31235C4.70884 4.24421 4.83868 4.20074 4.97301 4.18449C5.10734 4.16823 5.24348 4.17951 5.37353 4.21767C5.50357 4.25582 5.62492 4.32009 5.73052 4.40675L14.2912 11.2331L22.8519 4.40675C23.066 4.24101 23.3351 4.16832 23.601 4.2044C23.8669 4.24047 24.1083 4.38242 24.2729 4.59953C24.4376 4.81665 24.5123 5.09148 24.4808 5.3646C24.4494 5.63773 24.3144 5.88719 24.1049 6.05904Z" fill="url(#paint0_linear_830_317)"/>
<defs>
<linearGradient id="paint0_linear_830_317" x1="5.53129e-08" y1="21.0663" x2="30.4976" y2="17.2457" gradientUnits="userSpaceOnUse">
<stop stop-color="#F9E33B"/>
<stop offset="0.858244" stop-color="#E63F61"/>
</linearGradient>
</defs>
</svg>
