<svg width="25" height="25" viewBox="0 0 25 25" fill="none" xmlns="http://www.w3.org/2000/svg">
<path d="M5.55387 10.6518C7.45937 14.5215 10.5293 17.6801 14.2742 19.6628L17.1853 16.6546C17.5426 16.2854 18.0719 16.1623 18.5351 16.3264C20.0171 16.8323 21.6182 17.1058 23.2591 17.1058C23.9869 17.1058 24.5824 17.7211 24.5824 18.4732V23.2453C24.5824 23.9973 23.9869 24.6126 23.2591 24.6126C10.8337 24.6126 0.763672 14.207 0.763672 1.36737C0.763672 0.615316 1.35914 0 2.08693 0H6.71834C7.44614 0 8.0416 0.615316 8.0416 1.36737C8.0416 3.07658 8.30625 4.71742 8.79586 6.24888C8.94142 6.72745 8.83556 7.26073 8.46504 7.64359L5.55387 10.6518Z" fill="url(#paint0_linear_830_316)"/>
<defs>
<linearGradient id="paint0_linear_830_316" x1="0.763672" y1="22.5192" x2="26.3333" y2="20.022" gradientUnits="userSpaceOnUse">
<stop stop-color="#F9E33B"/>
<stop offset="0.858244" stop-color="#E63F61"/>
</linearGradient>
</defs>
</svg>
