<svg width="41" height="28" viewBox="0 0 41 28" fill="none" xmlns="http://www.w3.org/2000/svg">
<path d="M2.27778 28C1.63241 28 1.09182 27.776 0.656008 27.328C0.220193 26.88 0.00152637 26.3262 7.85439e-06 25.6666C-0.00151066 25.0071 0.217156 24.4533 0.656008 24.0053C1.09486 23.5573 1.63545 23.3333 2.27778 23.3333H38.7222C39.3676 23.3333 39.9089 23.5573 40.3463 24.0053C40.7836 24.4533 41.0015 25.0071 41 25.6666C40.9985 26.3262 40.7798 26.8807 40.344 27.3303C39.9082 27.7799 39.3676 28.0031 38.7222 28H2.27778ZM2.27778 16.3333C1.63241 16.3333 1.09182 16.1093 0.656008 15.6613C0.220193 15.2133 0.00152637 14.6595 7.85439e-06 14C-0.00151066 13.3404 0.217156 12.7867 0.656008 12.3387C1.09486 11.8907 1.63545 11.6667 2.27778 11.6667H38.7222C39.3676 11.6667 39.9089 11.8907 40.3463 12.3387C40.7836 12.7867 41.0015 13.3404 41 14C40.9985 14.6595 40.7798 15.2141 40.344 15.6636C39.9082 16.1132 39.3676 16.3364 38.7222 16.3333H2.27778ZM2.27778 4.66666C1.63241 4.66666 1.09182 4.44266 0.656008 3.99466C0.220193 3.54666 0.00152637 2.99289 7.85439e-06 2.33333C-0.00151066 1.67378 0.217156 1.12 0.656008 0.671999C1.09486 0.224 1.63545 0 2.27778 0H38.7222C39.3676 0 39.9089 0.224 40.3463 0.671999C40.7836 1.12 41.0015 1.67378 41 2.33333C40.9985 2.99289 40.7798 3.54744 40.344 3.99699C39.9082 4.44655 39.3676 4.66977 38.7222 4.66666H2.27778Z" fill="black"/>
</svg>
