<svg width="49" height="49" viewBox="0 0 49 49" fill="none" xmlns="http://www.w3.org/2000/svg">
<path d="M25.5718 48.3468L25.4848 48.3327C25.497 48.3421 25.5113 48.3483 25.5265 48.3508C25.5417 48.3533 25.5573 48.3519 25.5718 48.3468ZM45.3656 17.2012C45.3408 17.0699 45.2728 16.9507 45.1725 16.8624C45.0722 16.7742 44.9452 16.722 44.8118 16.7141C44.6784 16.7062 44.5462 16.7431 44.4362 16.819C44.3262 16.8948 44.2447 17.0052 44.2045 17.1327C44.1661 17.2537 44.0904 17.3594 43.9881 17.4347C43.8859 17.51 43.7624 17.5509 43.6354 17.5516H41.952C41.8431 17.5516 41.7363 17.5219 41.643 17.4657L39.2077 16.0053C39.1144 15.9491 39.0075 15.9194 38.8986 15.9194H35.003C34.8844 15.9194 34.7685 15.9546 34.67 16.0206L29.8657 19.2231C29.7827 19.2784 29.7147 19.3535 29.668 19.4416C29.6213 19.5298 29.5972 19.6282 29.598 19.728V24.27C29.5979 24.3788 29.6274 24.4857 29.6834 24.579C29.7394 24.6724 29.8197 24.7488 29.9158 24.7999L36.2152 28.1624C36.3098 28.2133 36.3892 28.2885 36.4451 28.3804C36.5009 28.4722 36.5312 28.5772 36.5329 28.6847L36.5623 31.2408C36.564 31.3466 36.5936 31.4501 36.648 31.5409C36.7025 31.6316 36.7799 31.7064 36.8725 31.7577L39.4035 33.1582C39.4973 33.2103 39.5755 33.2864 39.63 33.3788C39.6845 33.4712 39.7134 33.5765 39.7137 33.6837V38.9723C39.7137 39.0878 39.7471 39.2009 39.8098 39.298C39.8725 39.3951 39.9618 39.472 40.0672 39.5196C40.1725 39.5672 40.2893 39.5833 40.4036 39.5661C40.5179 39.549 40.6248 39.4992 40.7115 39.4228C41.7322 38.5239 43.1958 37.2116 43.3906 36.9113C43.7127 36.4129 44.0148 35.9025 44.297 35.3802C44.8814 34.298 45.3764 33.1698 45.7769 32.0069C47.1567 28.0122 46.0664 20.8314 45.3656 17.2012ZM27.6829 29.7174L21.0091 24.7118C20.9338 24.6553 20.8421 24.6247 20.748 24.6247H17.5814C17.5272 24.6248 17.4736 24.6142 17.4235 24.5934C17.3735 24.5727 17.328 24.5423 17.2898 24.5039L15.7968 23.011C15.7563 22.9706 15.7083 22.9385 15.6555 22.9167C15.6026 22.8948 15.546 22.8836 15.4888 22.8837H9.70086C9.61929 22.8837 9.53955 22.8595 9.47173 22.8142C9.4039 22.7688 9.35104 22.7044 9.31983 22.6291C9.28861 22.5537 9.28044 22.4708 9.29636 22.3908C9.31227 22.3108 9.35155 22.2373 9.40923 22.1796L10.3255 21.2634C10.3637 21.225 10.4092 21.1946 10.4592 21.1739C10.5093 21.1532 10.5629 21.1425 10.6171 21.1426H14.1395C14.3292 21.1426 14.5137 21.0806 14.665 20.9661C14.8162 20.8516 14.9259 20.6908 14.9774 20.5082L15.7271 17.8422C15.7431 17.7849 15.7707 17.7315 15.8081 17.6852C15.8456 17.639 15.8921 17.6009 15.9448 17.5734L18.934 16.0347C19.0012 16 19.0576 15.9474 19.097 15.8827C19.1363 15.818 19.1571 15.7437 19.1571 15.668V14.3078C19.157 14.2234 19.1829 14.141 19.2311 14.0717L20.8198 11.7843C20.8674 11.7156 20.935 11.6632 21.0135 11.6342L23.2366 10.7995C23.3153 10.7701 23.383 10.7173 23.4309 10.6483C23.4787 10.5792 23.5043 10.4972 23.5043 10.4132V9.17273C23.5043 9.10471 23.4875 9.03774 23.4554 8.97776C23.4233 8.91778 23.377 8.86663 23.3204 8.82886L21.0918 7.34678C21.0306 7.30649 20.9598 7.28307 20.8867 7.27887C20.8135 7.27466 20.7405 7.28983 20.6751 7.32284L17.6412 8.83975C17.5718 8.87402 17.4942 8.88801 17.4172 8.88012C17.3402 8.87222 17.267 8.84277 17.206 8.79513L15.7674 7.65799C15.7183 7.61851 15.6789 7.56834 15.6522 7.5113C15.6254 7.45426 15.6121 7.39187 15.6131 7.32888C15.6142 7.26589 15.6296 7.20398 15.6582 7.14786C15.6868 7.09175 15.7279 7.04292 15.7783 7.00509L16.947 6.14435C16.9999 6.10554 17.0427 6.05464 17.072 5.9959C17.1012 5.93716 17.116 5.87227 17.115 5.80667C17.114 5.74106 17.0974 5.67664 17.0665 5.61877C17.0355 5.56091 16.9912 5.51128 16.9372 5.47404L15.1167 4.20414C15.0537 4.15977 14.9794 4.134 14.9025 4.12977C14.8255 4.12554 14.7489 4.14301 14.6814 4.1802C14.0231 4.54039 12.0916 5.60679 11.406 6.08668C8.23418 8.31111 5.68153 11.3072 3.98906 14.792C3.79101 15.2012 3.54617 15.618 3.52223 16.0674C3.4983 16.5168 3.14573 17.5201 2.99882 17.926C2.97901 17.9808 2.97109 18.0393 2.97559 18.0974C2.9801 18.1556 2.99692 18.2121 3.02494 18.2633L6.90862 25.3995C6.94357 25.4644 6.99547 25.5185 7.05879 25.5562L11.1449 28.0089C11.1979 28.0405 11.2431 28.0836 11.2772 28.135C11.3113 28.1865 11.3334 28.2449 11.3418 28.306L12.1601 34.2409C12.1681 34.2978 12.1878 34.3524 12.218 34.4012C12.2481 34.4501 12.2881 34.4922 12.3353 34.5249L15.5237 36.7165C15.616 36.78 15.6803 36.8766 15.7032 36.9863L17.3942 45.017C17.4037 45.0642 17.4218 45.1092 17.4475 45.1498C17.6064 45.4066 18.2397 46.3468 19.0036 46.4861C18.9329 46.5056 18.8698 46.5503 18.799 46.5709C18.9825 46.6033 19.1642 46.6454 19.3431 46.6972C19.5608 46.7559 19.7784 46.806 19.996 46.8528C20.3366 46.9202 20.3704 46.9725 20.5336 46.67C20.7512 46.2652 21.0004 46.1259 21.1865 46.0758C21.2633 46.0581 21.3335 46.0191 21.3892 45.9633C21.4448 45.9075 21.4835 45.8371 21.501 45.7603L22.5968 40.6807C22.6198 40.5742 22.6819 40.4802 22.7709 40.4173L27.6676 36.9461C27.7245 36.9058 27.7709 36.8525 27.8029 36.7906C27.8349 36.7287 27.8516 36.66 27.8515 36.5902V30.0656C27.8522 29.9985 27.8373 29.9321 27.808 29.8717C27.7788 29.8113 27.7359 29.7585 27.6829 29.7174Z" fill="url(#paint0_linear_177_87)"/>
<path d="M25.0281 1.99121C25.0281 1.99121 24.6309 2.01406 24.5504 2.01624C23.9606 2.03365 23.3723 2.07427 22.7854 2.13811C20.646 2.37028 18.5507 2.9071 16.5632 3.73228C16.8277 3.91509 16.3728 4.08267 16.3728 4.08267L17.0845 5.47335H20.8931L23.5047 6.77916L25.7898 5.47335L25.0281 1.99121ZM35.0643 9.83256L36.8173 8.30912C36.8722 8.2615 36.9143 8.20089 36.9397 8.13283C36.9652 8.06478 36.9732 7.99143 36.963 7.91949C36.9528 7.84754 36.9248 7.77929 36.8815 7.72095C36.8382 7.66261 36.781 7.61604 36.715 7.58549L34.6682 6.63552C34.5642 6.58701 34.4453 6.58152 34.3373 6.62024C34.2293 6.65896 34.1409 6.73875 34.0915 6.84227L33.2481 8.60619C33.2022 8.70263 33.1934 8.81257 33.2233 8.91511C33.2532 9.01764 33.3197 9.1056 33.4103 9.16225L34.5485 9.87391C34.6276 9.92311 34.7204 9.94565 34.8132 9.9382C34.9061 9.93076 34.9941 9.89373 35.0643 9.83256ZM43.2702 12.0753L42.6358 11.0959C42.626 11.0807 42.6173 11.0655 42.6086 11.0491C42.4943 10.8152 41.5487 8.90544 40.7587 8.1644C40.1656 7.60399 39.997 7.76504 39.9502 7.88909C39.9234 7.9577 39.8787 8.01784 39.8207 8.0632L36.6824 10.5997C36.6051 10.6623 36.5087 10.6964 36.4093 10.6966H34.7846C34.7275 10.6965 34.6708 10.7077 34.618 10.7296C34.5652 10.7514 34.5171 10.7835 34.4767 10.8239L33.1709 12.1297C33.1304 12.1701 33.0983 12.2181 33.0764 12.271C33.0545 12.3238 33.0432 12.3804 33.0432 12.4376C33.0432 12.4948 33.0545 12.5515 33.0764 12.6043C33.0983 12.6572 33.1304 12.7052 33.1709 12.7456L34.4767 14.0514C34.5171 14.0918 34.5652 14.1238 34.618 14.1457C34.6708 14.1675 34.7275 14.1788 34.7846 14.1787H42.9644C43.0232 14.1788 43.0813 14.1669 43.1354 14.1439C43.1894 14.1209 43.2382 14.0872 43.2789 14.0448C43.3196 14.0024 43.3513 13.9522 43.372 13.8972C43.3928 13.8422 43.4022 13.7836 43.3997 13.7249L43.3398 12.294C43.3366 12.2162 43.3125 12.1406 43.2702 12.0753Z" fill="url(#paint1_linear_177_87)"/>
<path d="M24.375 4.60268C29.0073 4.60229 33.4964 6.20811 37.0775 9.14652C40.6585 12.0849 43.1099 16.1741 44.014 20.7173C44.918 25.2605 44.2188 29.9767 42.0355 34.0621C39.8521 38.1476 36.3197 41.3497 32.0402 43.1227C27.7606 44.8957 22.9987 45.1299 18.5658 43.7856C14.1329 42.4412 10.3032 39.6013 7.72943 35.7499C5.15562 31.8984 3.99688 27.2737 4.45063 22.6637C4.90439 18.0537 6.94258 13.7436 10.2179 10.4679C12.0726 8.60266 14.2788 7.12384 16.7089 6.11707C19.139 5.11029 21.7446 4.59556 24.375 4.60268ZM24.375 0.25C10.9143 0.25 0 11.1643 0 24.625C0 38.0857 10.9143 49 24.375 49C37.8357 49 48.75 38.0857 48.75 24.625C48.75 11.1643 37.8357 0.25 24.375 0.25Z" fill="url(#paint2_linear_177_87)"/>
<defs>
<linearGradient id="paint0_linear_177_87" x1="2.97437" y1="44.5906" x2="49.6219" y2="39.9635" gradientUnits="userSpaceOnUse">
<stop stop-color="#F9E33B"/>
<stop offset="0.858244" stop-color="#E63F61"/>
</linearGradient>
<linearGradient id="paint1_linear_177_87" x1="16.3728" y1="13.1421" x2="44.2665" y2="6.89954" gradientUnits="userSpaceOnUse">
<stop stop-color="#F9E33B"/>
<stop offset="0.858244" stop-color="#E63F61"/>
</linearGradient>
<linearGradient id="paint2_linear_177_87" x1="9.43414e-08" y1="44.8535" x2="52.3002" y2="39.5755" gradientUnits="userSpaceOnUse">
<stop stop-color="#F9E33B"/>
<stop offset="0.858244" stop-color="#E63F61"/>
</linearGradient>
</defs>
</svg>
