<svg width="50" height="50" viewBox="0 0 50 50" fill="none" xmlns="http://www.w3.org/2000/svg">
<path d="M43.8663 7.07567L49.3439 8.17052C49.638 8.22935 49.8799 8.44505 49.9648 8.73593C50.0078 8.87722 50.0116 9.02751 49.9759 9.1708C49.9402 9.31409 49.8664 9.44504 49.7622 9.54971L45.2749 14.0403C44.7373 14.5749 44.0102 14.8756 43.2519 14.8769H39.5294L30.1823 24.2273C30.3606 24.9006 30.3934 25.6042 30.2785 26.2912C30.1636 26.9782 29.9036 27.6328 29.5158 28.2115C29.128 28.7901 28.6214 29.2795 28.0297 29.6469C27.438 30.0144 26.7748 30.2516 26.0842 30.3427C25.3937 30.4337 24.6916 30.3766 24.0249 30.175C23.3581 29.9735 22.742 29.6322 22.2175 29.1739C21.693 28.7155 21.2722 28.1507 20.9831 27.517C20.694 26.8832 20.5433 26.1952 20.541 25.4986C20.5409 24.7464 20.7138 24.0042 21.0465 23.3295C21.3792 22.6548 21.8627 22.0657 22.4596 21.6078C23.0565 21.15 23.7508 20.8356 24.4886 20.6891C25.2265 20.5426 25.9882 20.5679 26.7147 20.763L36.0651 11.4093V7.69336C36.0651 6.93513 36.3658 6.20632 36.9017 5.67033L41.3923 1.17979C41.497 1.07563 41.6279 1.00178 41.7712 0.966103C41.9145 0.930423 42.0648 0.934245 42.2061 0.977162C42.4969 1.06214 42.7126 1.30398 42.7715 1.59812L43.8663 7.07567Z" fill="url(#paint0_linear_177_80)"/>
<path d="M5.83417 25.4986C5.83752 28.3026 6.4422 31.0733 7.6074 33.6237C8.7726 36.1742 10.4712 38.4451 12.5887 40.2832C14.7062 42.1214 17.1932 43.484 19.8821 44.2793C22.571 45.0745 25.3991 45.2839 28.1758 44.8932C30.9524 44.5025 33.613 43.5208 35.978 42.0144C38.3431 40.5081 40.3575 38.512 41.8855 36.1609C43.4135 33.8098 44.4195 31.1583 44.8357 28.3854C45.2518 25.6124 45.0684 22.7825 44.2979 20.0864C44.1897 19.7714 44.1468 19.4377 44.1717 19.1056C44.1966 18.7735 44.2888 18.4499 44.4427 18.1546C44.5967 17.8593 44.8091 17.5984 45.0671 17.3878C45.3251 17.1772 45.6233 17.0213 45.9434 16.9296C46.2636 16.8379 46.5991 16.8123 46.9295 16.8544C47.2598 16.8965 47.5782 17.0054 47.8651 17.1744C48.1521 17.3435 48.4016 17.5691 48.5985 17.8377C48.7955 18.1063 48.9357 18.4121 49.0107 18.7366C50.5027 23.9577 50.2193 29.5264 48.2049 34.569C46.1905 39.6116 42.5591 43.8429 37.8805 46.5989C33.2018 49.355 27.7406 50.4799 22.3536 49.7972C16.9666 49.1145 11.9586 46.6628 8.11539 42.8267C4.27634 38.9844 1.82201 33.976 1.13774 28.5878C0.453468 23.1995 1.578 17.7366 4.33478 13.0567C7.09156 8.37679 11.3245 4.74492 16.3689 2.7313C21.4134 0.717672 26.9838 0.436326 32.2055 1.93143C32.8272 2.11318 33.3517 2.53366 33.6644 3.10097C33.9771 3.66828 34.0525 4.3363 33.8741 4.95903C33.6958 5.58177 33.2782 6.10859 32.7126 6.42435C32.147 6.74012 31.4794 6.81916 30.8557 6.64421C27.9358 5.80574 24.861 5.65716 21.8738 6.21019C18.8866 6.76322 16.0688 8.00273 13.6426 9.83095C11.2164 11.6592 9.24809 14.0261 7.89301 16.7451C6.53794 19.464 5.83313 22.4607 5.83417 25.4986Z" fill="url(#paint1_linear_177_80)"/>
<path d="M15.6385 25.4986C15.6387 27.285 16.1266 29.0374 17.0496 30.5669C17.9726 32.0963 19.2957 33.3448 20.8761 34.1775C22.4565 35.0103 24.2343 35.3957 26.0176 35.2923C27.801 35.1889 29.5223 34.6006 30.9959 33.5908C32.4692 32.5784 33.6377 31.1825 34.375 29.5541C35.1123 27.9256 35.3904 26.1266 35.1792 24.3515C35.1221 23.9207 35.1808 23.4826 35.3493 23.082C35.5178 22.6815 35.7901 22.3332 36.138 22.0728C36.4859 21.8125 36.8969 21.6496 37.3286 21.6009C37.7604 21.5522 38.1974 21.6194 38.5945 21.7957C38.9916 21.9698 39.3354 22.246 39.5909 22.5962C39.8464 22.9464 40.0044 23.3581 40.0489 23.7894C40.404 26.8226 39.806 29.8912 38.338 32.5691C36.87 35.2471 34.6047 37.4016 31.8566 38.7337C29.1084 40.0658 26.0138 40.5093 23.0021 40.0028C19.9905 39.4962 17.2112 38.0647 15.0501 35.9068C12.889 33.749 11.4532 30.9719 10.9421 27.961C10.4309 24.9502 10.8698 21.8548 12.1977 19.1047C13.5256 16.3545 15.6767 14.086 18.3524 12.6139C21.0282 11.1418 24.0958 10.5392 27.1296 10.8897C27.4544 10.9198 27.77 11.0145 28.0578 11.1682C28.3456 11.3219 28.5998 11.5314 28.8055 11.7846C29.0112 12.0378 29.1643 12.3296 29.2559 12.6427C29.3474 12.9558 29.3755 13.2841 29.3385 13.6082C29.3015 13.9324 29.2002 14.2459 29.0405 14.5303C28.8808 14.8148 28.6659 15.0645 28.4084 15.2649C28.1509 15.4652 27.8561 15.6122 27.5411 15.6971C27.2261 15.782 26.8973 15.8031 26.574 15.7593C25.2002 15.5998 23.8082 15.7328 22.4895 16.1494C21.1707 16.566 19.955 17.2569 18.9223 18.1768C17.8895 19.0966 17.063 20.2245 16.497 21.4864C15.9311 22.7483 15.6385 24.1156 15.6385 25.4986Z" fill="url(#paint2_linear_177_80)"/>
<defs>
<linearGradient id="paint0_linear_177_80" x1="20.541" y1="27.8804" x2="52.1451" y2="24.6893" gradientUnits="userSpaceOnUse">
<stop stop-color="#F9E33B"/>
<stop offset="0.858244" stop-color="#E63F61"/>
</linearGradient>
<linearGradient id="paint1_linear_177_80" x1="0.942383" y1="45.8234" x2="53.5236" y2="40.5165" gradientUnits="userSpaceOnUse">
<stop stop-color="#F9E33B"/>
<stop offset="0.858244" stop-color="#E63F61"/>
</linearGradient>
<linearGradient id="paint2_linear_177_80" x1="10.7346" y1="37.7047" x2="42.2907" y2="34.5201" gradientUnits="userSpaceOnUse">
<stop stop-color="#F9E33B"/>
<stop offset="0.858244" stop-color="#E63F61"/>
</linearGradient>
</defs>
</svg>
